<?xml version="1.0" encoding="UTF-8"?>
<svg xmlns="http://www.w3.org/2000/svg" xmlns:xlink="http://www.w3.org/1999/xlink" viewBox="0 0 935.24 687.46">
  <defs>
    <clipPath id="clippath">
      <rect x="69.63" y="100.42" width="750" height="500" fill="none"/>
    </clipPath>
    <linearGradient id="Degradado_sin_nombre_4" data-name="Degradado sin nombre 4" x1="162.69" y1="76.12" x2="722.49" y2="620.74" gradientUnits="userSpaceOnUse">
      <stop offset="0" stop-color="#679738"/>
      <stop offset=".59" stop-color="#65b264"/>
      <stop offset="1" stop-color="#64c27f"/>
    </linearGradient>
  </defs>
  <g id="BACKGROUND">
    <rect x="69.63" y="100.42" width="750" height="500" fill="#c0f9d9"/>
  </g>
  <g id="OBJECTS">
    <g clip-path="url(#clippath)">
      <path d="m843.12,157.05c-51.86-6.32-103.92,8.33-152.98,26.28-49.06,17.95-97.36,39.51-148.93,47.87-53.6,8.69-109.54,2.51-159.96-17.68-23.11-9.26-44.99-21.35-67.95-30.99-82.44-34.62-178.41-35.7-261.61-2.95-1.23.48,2.03-1.21.71-1.17-.04.76-.04,1.53-.08,2.3v136.45c0-.27,4.03.03,4.03-.24h782.93l3.84-159.86Z" fill="#abefc6"/>
      <g>
        <path d="m830.16,225.33c-54.47,1.35-102.11,39.71-156.37,44.68-17.63,1.62-35.43-.37-53.09.97-31.84,2.42-61.77,15.48-92.79,23.07-45.13,11.04-93.08,10.32-137.85-2.07-39.25-10.86-76.72-30.6-117.41-32.14-32.86-1.24-66.11,9.57-98.26,2.65-12.36-2.66-24.02-7.86-36.21-11.19-25.89-7.07-54.1-5.38-78.96,4.73l3.17,349.16,771.38-2.36-3.62-377.5Z" fill="#94e0b5"/>
        <polygon points="380.41 236.83 360.7 297.39 400.12 297.39 380.41 236.83" fill="#94e0b5"/>
        <polygon points="406.68 263.01 386.97 323.57 426.39 323.57 406.68 263.01" fill="#94e0b5"/>
        <polygon points="430 257.02 410.29 317.58 449.71 317.58 430 257.02" fill="#94e0b5"/>
        <polygon points="552.28 238.26 532.57 298.82 571.99 298.82 552.28 238.26" fill="#94e0b5"/>
        <polygon points="675.61 220.61 655.9 281.17 695.32 281.17 675.61 220.61" fill="#94e0b5"/>
        <polygon points="532.57 259.17 512.86 319.73 552.28 319.73 532.57 259.17" fill="#94e0b5"/>
        <polygon points="363.15 245.64 343.44 306.2 382.85 306.2 363.15 245.64" fill="#94e0b5"/>
        <polygon points="343.44 226.74 323.73 287.3 363.15 287.3 343.44 226.74" fill="#94e0b5"/>
        <polygon points="305.3 215.36 285.59 275.92 325.01 275.92 305.3 215.36" fill="#94e0b5"/>
        <polygon points="228.31 232.73 208.6 293.29 248.02 293.29 228.31 232.73" fill="#94e0b5"/>
      </g>
      <g>
        <path d="m849.05,328.51c-103.98,21.57-201.3,78.71-307.49,78.2-59.61-.28-117.35-18.9-175.53-31.88-104.8-23.39-213.61-28.7-320.18-15.61-.37,1.1-.6,1-.98,2.1v125l809.69,3.13-5.51-160.94Z" fill="#82cea1"/>
        <rect x="631.24" y="94.69" width="46.49" height="308.49" transform="translate(-16.2 47.69) rotate(-4.12)" fill="#82cea1"/>
        <rect x="757.18" y="63.32" width="46.49" height="308.49" fill="#82cea1"/>
        <rect x="174.75" y="63.32" width="46.49" height="308.49" transform="translate(22.81 -18.75) rotate(5.75)" fill="#82cea1"/>
        <rect x="321.46" y="67.36" width="30.84" height="308.49" transform="translate(10.31 -14.93) rotate(2.58)" fill="#82cea1"/>
        <rect x="365.82" y="90.28" width="11.48" height="308.49" fill="#82cea1"/>
        <rect x="296.25" y="92.4" width="11.48" height="308.49" transform="translate(26.25 -29.03) rotate(5.75)" fill="#82cea1"/>
        <rect x="545.94" y="91.62" width="12.69" height="328.21" transform="translate(28.42 -54.09) rotate(5.75)" fill="#82cea1"/>
        <rect x="556.38" y="94.69" width="12.69" height="328.21" transform="translate(-38.45 109.73) rotate(-10.77)" fill="#82cea1"/>
        <rect x="55.89" y="67.36" width="46.49" height="308.49" transform="translate(-15.72 6.26) rotate(-4.12)" fill="#82cea1"/>
        <polygon points="361.56 433.69 828.51 400.06 828.51 444.27 452.95 452.76 361.56 433.69" fill="#94e0b5"/>
      </g>
      <g>
        <g>
          <g>
            <path d="m281.7,87.05h-45.08v259.43c0,32.42-3.35,64.76-10,96.5h0l64.44-3.18c-6.22-30.72-9.36-61.98-9.36-93.33V87.05Z" fill="#519b74"/>
            <path d="m291.7,439.77l-.64.03c.15.76.3,1.52.46,2.28l.19-2.31Z" fill="#519b74"/>
          </g>
          <rect x="220.28" y="89.04" width="12.68" height="130.06" transform="translate(-34.9 72.21) rotate(-16.83)" fill="#519b74"/>
          <rect x="283.38" y="94.25" width="13.95" height="172.56" transform="translate(53.1 -65.66) rotate(14.19)" fill="#519b74"/>
          <path d="m325.68,428.12c4.67-6,7.83-12.46,9.34-18.59-6.67,2.42-13.53,6.94-19.5,13.26,2.07-8.08,2.29-15.95.93-22.66-5.24,5.29-9.68,12.77-12.34,21.58-1.5-9.08-4.94-17.07-9.46-22.99-1.81,5.3-2.67,11.51-2.37,18.13-3.8-5.42-8.27-9.81-12.93-12.9.04,7.49,2.21,15.97,6.61,24.12,4.39,8.13,10.27,14.58,16.5,18.72,0,0,.01.02.02.02,0,0,0,0,0,0,0,0,.02.01.03.02h0c7.49-.04,15.97-2.21,24.12-6.61,8.15-4.4,14.61-10.3,18.76-16.55-6.15.03-12.96,1.5-19.7,4.45Z" fill="#519b74"/>
          <path d="m226.53,413.31c1.87-7.37,2.18-14.55,1.11-20.78-5.14,4.89-9.62,11.78-12.56,19.96-1.34-8.23-4.29-15.53-8.23-21.13-2.68,6.95-3.76,15.58-2.66,24.71-5.01-7.72-11.36-13.66-17.88-17.28.47,5.58,2.16,11.62,5.09,17.56-5.65-3.44-11.5-5.67-17.01-6.64,3.04,6.85,8.42,13.75,15.72,19.46,7.28,5.69,15.26,9.25,22.62,10.55,0,0,.02,0,.02.01,0,0,0,0,0,0,.01,0,.02,0,.03,0h0c6.85-3.04,13.75-8.42,19.46-15.72,5.71-7.3,9.26-15.29,10.56-22.68-5.62,2.49-11.27,6.56-16.27,11.97Z" fill="#519b74"/>
        </g>
        <path d="m846.61,457.82C564.77,482.94,279.9,392.26.02,433.86c-.37,1.1,4.05,6.39,3.68,7.49v116.09l849.08.68-6.17-100.3Z" fill="#519b74"/>
        <circle cx="526.37" cy="484.89" r="59.87" fill="#519b74"/>
        <circle cx="466.5" cy="457.08" r="30.35" fill="#519b74"/>
        <g>
          <path d="m649.72,51.84l-52.48-2.56-14.74,302.04c-1.84,37.75-7.58,75.21-17.12,111.78h0l75.2-.04c-5.49-36.12-7.37-72.69-5.59-109.18l14.74-302.03Z" fill="#519b74"/>
          <rect x="646.35" y="60.59" width="16.26" height="201.14" transform="translate(75.6 -184.12) rotate(16.98)" fill="#519b74"/>
        </g>
        <path d="m447.83,88.42s177.73,129.64,382.09,86.28" fill="none" stroke="#519b74" stroke-miterlimit="10" stroke-width="2"/>
        <path d="m458.6,64.6s153.34,158.85,361.03,164.41" fill="none" stroke="#519b74" stroke-miterlimit="10" stroke-width="2"/>
        <path d="m62.17,143.19s206.25,82.78,359.05-57.99" fill="none" stroke="#519b74" stroke-miterlimit="10" stroke-width="2"/>
        <path d="m60.89,438.94c.02,2.34,475,30.94,475,30.94l-263.02-3.11c-7.7-.09-9.99,10.44-2.95,13.56l105.48,46.68-314.51-61.77v-26.3Z" fill="#94e0b5"/>
      </g>
      <g>
        <path d="m858.86,432.04c-46.37,1.07-92.76,2.14-138.99,5.81-142.56,11.3-281.9,47.07-420.39,82.7-.73,0,.58,1.97-.15,1.97v39.67l551.18,3.29,8.36-133.43Z" fill="#2d6b4c"/>
        <path d="m681.14,435.72l-12.77,14.79,10.02-16.4c-4.82-2.71-9.89-5.02-15.18-6.87l-7.68,16.3,4.89-17.23c-5.66-1.79-11.56-3.07-17.62-3.78l-5.56,19.07,2.33-19.4c-2.65-.22-5.34-.34-8.05-.34-2.96,0-5.89.14-8.78.4l-1.66,21.35-1.82-20.97c-4.76.61-9.42,1.57-13.94,2.85l2.31,24.16-6.1-23c-5.35,1.76-10.5,3.98-15.39,6.62l7.25,23.04-10.68-21.09c-28.09,16.68-46.92,47.31-46.92,82.35,0,52.86,42.85,95.71,95.71,95.71s95.71-42.85,95.71-95.71c0-34.69-18.46-65.08-46.09-81.86Z" fill="#2d6b4c"/>
        <circle cx="548.85" cy="493.56" r="46.48" fill="#2d6b4c"/>
        <path d="m431.01,550.32c179.31-26.21,340-71.27,399.86-89.51v44.96s-241.16,52.7-241.16,52.7c0,0-194.59-2.9-158.7-8.15Z" fill="#519b74"/>
      </g>
      <g>
        <path d="m849.05,472.49c-103.98,21.57-201.3,78.71-307.49,78.2-59.61-.28-117.35-18.9-175.53-31.88-104.19-23.26-237.58-79.69-343.56-66.89-1.3.16-2.4,1.05-2.83,2.29v.03s25.23,156.05,25.23,156.05l809.69,3.13-5.51-140.94Z" fill="#174932"/>
        <g>
          <g>
            <g>
              <path d="m202.6,4.37L113.01,0l-14.15,297.91c-3.14,64.44-12.94,128.38-29.23,190.8h0s128.36-.07,128.36-.07c-9.37-61.65-12.58-124.08-9.55-186.38L202.6,4.37Z" fill="#174932"/>
              <path d="m199.28,513.73h-1.28c.23,1.52.45,3.05.69,4.57l.6-4.57Z" fill="#174932"/>
            </g>
            <rect x="80.73" y="25.72" width="23.04" height="200.69" transform="translate(-28.49 26.95) rotate(-14.42)" fill="#174932"/>
            <rect x="219.57" y="57.7" width="22.66" height="234.18" transform="translate(118.33 -92.03) rotate(30)" fill="#174932"/>
          </g>
          <path d="m250.8,217.51c5.73,5.06,13.23,6.82,20.19,5.46.48-7.08-2.21-14.29-7.95-19.35-5.73-5.06-13.23-6.82-20.19-5.46-.48,7.08,2.21,14.29,7.95,19.35Z" fill="#174932"/>
          <path d="m73.01,197.51c5.73,5.06,13.23,6.82,20.19,5.46.48-7.08-2.21-14.29-7.95-19.35s-13.23-6.82-20.19-5.46c-.48,7.08,2.21,14.29,7.95,19.35Z" fill="#174932"/>
          <path d="m214.37,121.37c-6.77,3.55-11.1,9.92-12.31,16.91,6.44,2.98,14.14,3.03,20.91-.52,6.77-3.55,11.1-9.92,12.31-16.91-6.44-2.97-14.14-3.03-20.91.52Z" fill="#174932"/>
          <path d="m323.06,97.56c-4.94,5.83-6.57,13.36-5.07,20.29,7.09.34,14.25-2.49,19.19-8.32,4.94-5.83,6.57-13.36,5.07-20.29-7.09-.34-14.25,2.49-19.19,8.32Z" fill="#174932"/>
          <path d="m267.84,196.1c7.61-.75,14.01-5.04,17.75-11.06-4.85-5.17-11.97-8.12-19.58-7.37-7.61.75-14.01,5.04-17.75,11.06,4.85,5.17,11.97,8.12,19.58,7.37Z" fill="#174932"/>
          <path d="m305.16,158.97c4.8,5.95,11.89,8.96,18.98,8.78,1.67-6.9.23-14.46-4.57-20.41-4.8-5.95-11.89-8.96-18.98-8.78-1.67,6.9-.23,14.46,4.57,20.41Z" fill="#174932"/>
          <path d="m275.17,170.59c6.82,3.44,14.52,3.26,20.92.19-1.32-6.97-5.75-13.27-12.57-16.72-6.82-3.44-14.52-3.26-20.92-.19,1.32,6.97,5.75,13.27,12.57,16.72Z" fill="#174932"/>
          <path d="m297.5,134.6c6.68,3.71,14.38,3.83,20.89,1.01-1.05-7.02-5.22-13.49-11.91-17.2-6.68-3.71-14.38-3.83-20.89-1.01,1.05,7.02,5.22,13.49,11.91,17.2Z" fill="#174932"/>
          <path d="m218.94,104.02c4.26,6.35,11.06,9.96,18.14,10.41,2.26-6.72,1.49-14.39-2.77-20.73-4.26-6.35-11.06-9.96-18.14-10.41-2.26,6.72-1.49,14.39,2.77,20.73Z" fill="#174932"/>
          <path d="m84.34,230.81c7.33-2.17,12.81-7.59,15.35-14.21-5.74-4.17-13.29-5.72-20.62-3.54-7.33,2.17-12.81,7.59-15.35,14.21,5.74,4.17,13.29,5.72,20.62,3.54Z" fill="#174932"/>
        </g>
      </g>
      <g>
        <path d="m740.52,74.38l-50.94-.29,1.27,182.17-.9,144.18c2.69,54.35-.24,108.84-8.75,162.59h0s107.75-10.68,107.75-10.68c-12.97-50.98-29.16-158.45-31.77-211l-16.66-266.97Z" fill="#174932"/>
        <path d="m786.51,548.43l-1.08.11c.32,1.26.63,2.52.95,3.78l.12-3.88Z" fill="#174932"/>
      </g>
      <path d="m487.84,191.6c30.85,13.61,70.65,2.19,89.6-25.71,1.15-1.7,2.3-3.5,4.06-4.54,1.94-1.14,4.32-1.17,6.57-1.29,19.12-1.01,37.53-11.43,48.23-27.31,1.75-2.59,3.38-5.4,5.98-7.13,3.29-2.19,7.49-2.26,11.44-2.54,12.27-.85,24.5-4.51,34.49-11.69,9.98-7.18,17.54-18.05,19.5-30.19l-219.88,110.4Z" fill="#174932"/>
      <path d="m935.24,195.9c-30.85,13.61-70.65,2.19-89.6-25.71-1.15-1.7-2.3-3.5-4.06-4.54-1.94-1.14-4.32-1.17-6.57-1.29-19.12-1.01-37.53-11.43-48.23-27.31-1.75-2.59-3.38-5.4-5.98-7.13-3.29-2.19-7.49-2.26-11.44-2.54-12.27-.85-24.5-4.51-34.49-11.69-9.98-7.18-17.54-18.05-19.5-30.19-8.23-1.41,219.88,110.4,219.88,110.4Z" fill="#174932"/>
      <path d="m909.18,280.8c-33.6,2.81-67.51-20.96-76.32-53.51-.54-1.98-1.03-4.06-2.36-5.62-1.47-1.72-3.7-2.52-5.79-3.36-17.75-7.19-31.75-23.04-36.7-41.54-.81-3.02-1.44-6.21-3.33-8.69-2.4-3.15-6.35-4.58-9.99-6.13-11.32-4.8-21.69-12.26-28.79-22.3-7.1-10.04-10.7-22.78-8.6-34.9l171.88,176.05Z" fill="#174932"/>
      <g>
        <path d="m864.25,550.3c-113.01-16.74-226.93,14.65-340.84,23.4-105.11,8.07-211.11-3.28-314.03-26.11-60.99-13.53-123.88-31.16-184.93-17.93-1.06,3.66,2.5,5.18,3.04,8.95v69.46l839.94,1.29-3.19-59.06Z" fill="#0a2317"/>
        <path d="m258.68,536.4c11.65-17.65,19.02-36.24,21.91-53.57-17.98,8.15-36.02,22.16-51.22,40.97,3.99-22.84,2.91-44.73-2.31-63.04-13.39,15.81-24.1,37.49-29.56,62.49-6.12-24.86-17.38-46.26-31.18-61.72-3.87,15.09-4.93,32.5-2.68,50.78-11.7-14.2-25.04-25.41-38.64-32.98,1.72,20.77,9.56,43.82,23.52,65.47,13.93,21.6,31.63,38.23,49.8,48.37.02.02.03.04.05.06,0,0,0-.02,0-.03.03.01.05.03.08.04h0c20.77-1.72,43.82-9.56,65.47-23.52,21.66-13.96,38.31-31.72,48.45-49.93-17.04,1.41-35.61,6.95-53.68,16.59Z" fill="#0a2317"/>
        <path d="m649.11,565.79c12.92,45.91,29.53,87.5,47.66,121.67-2.35-38.61-9.86-82.77-22.78-128.68-12.92-45.91-29.53-87.5-47.66-121.67,2.35,38.61,9.86,82.77,22.78,128.67Z" fill="#0a2317"/>
        <path d="m672.08,556.44c7.44,47.1,19.07,90.36,33.06,126.42,2.19-38.62-.09-83.35-7.53-130.46-7.44-47.1-19.07-90.36-33.06-126.42-2.19,38.62.09,83.35,7.53,130.46Z" fill="#0a2317"/>
        <path d="m579.06,499.72s58.95,19.21,72.52,74.64" fill="#0a2317"/>
        <path d="m766.03,468.81s47.26,40.13,38.8,96.57" fill="#0a2317"/>
        <path d="m720.13,522.58s61.98,1.62,90.78,50.89" fill="#0a2317"/>
        <path d="m788.16,470.9s37.1,49.67,16.25,102.8" fill="#0a2317"/>
        <path d="m790.69,468.89s47.42,39.94,39.2,96.41" fill="#0a2317"/>
        <path d="m567.46,503.83s61.97,20.45,90.54,69.85" fill="#0a2317"/>
        <path d="m375.4,527.01s-61.97,1.92-90.54,51.32" fill="#0a2317"/>
        <path d="m395.7,551.61s-61.11-10.48-98.95,32.24" fill="#0a2317"/>
        <path d="m117.26,447s-44.26,43.41-31.78,99.1" fill="#0a2317"/>
        <path d="m84.12,442.3s-24.9,56.78,7.42,103.81" fill="#0a2317"/>
        <path d="m115.57,449.18s-22.95,57.6,10.97,103.49" fill="#0a2317"/>
        <path d="m350.6,489.02s-47.8,39.48-40.11,96.03" fill="#0a2317"/>
        <path d="m128.45,466.36s-47.8,39.48-40.11,96.03" fill="#0a2317"/>
      </g>
    </g>
  </g>
  <g id="Capa_3" data-name="Capa 3">
    <rect x="69.63" y="100.42" width="750" height="500" fill="url(#Degradado_sin_nombre_4)" opacity=".8"/>
  </g>
</svg>