<?xml version="1.0" encoding="UTF-8"?>
<svg id="Capa_2" data-name="Capa 2" xmlns="http://www.w3.org/2000/svg" viewBox="0 0 356.27 347.91">
  <path d="m203.62,347.91c-22.74-.07-42.06-15.5-46.88-37.81-.73-3.39-2.27-4.74-5.4-5.58-45.26-12.03-90.48-24.17-135.73-36.22-8.22-2.19-13.76-6.84-15.33-15.49-2.15-11.84,8.46-22.69,20.41-21.13,2.62.34,5.65,2.81,7.72.79,1.64-1.59,1.76-4.81,2.44-7.33,10.83-40.4,21.65-80.81,32.46-121.22,2.01-7.52,4.42-8.96,11.88-6.95,7.23,1.95,14.52,3.71,21.68,5.9,3.16.96,4.05-.03,4.81-2.92,7.06-26.68,14.25-53.32,21.41-79.97,1.87-6.97,4.2-8.38,11.1-6.54,38,10.15,75.99,20.33,113.99,30.5,4.81,1.29,4.81,1.27,6.13-3.69,1.58-5.91,3.04-11.86,4.77-17.72,4.86-16.54,20.36-25.67,37.07-21.51,15.51,3.86,30.93,8.08,46.32,12.38,10.42,2.91,15.83,12.55,13.11,22.67-2.6,9.69-12.33,15.34-22.61,12.77-11.87-2.97-23.7-6.13-35.45-9.52-3.65-1.05-4.85-.28-5.83,3.38-17.36,65.28-34.87,130.53-52.35,195.78-1.74,6.51-3.41,13.05-5.29,19.53-.64,2.22-.2,3.67,1.53,5.22,11.63,10.35,16.99,23.29,16.61,38.92-.62,25.15-22.38,45.86-48.56,45.78Zm-84.2-164.32c-5.36.02-8.01-3.72-6.67-8.85,4.12-15.7,8.25-31.4,12.59-47.05.85-3.08.1-4.12-2.86-4.88-13.43-3.44-26.81-7.07-40.19-10.68-7.28-1.96-7.31-2.02-9.25,5.23-10.31,38.35-20.59,76.71-30.9,115.06-.69,2.57-1.37,4.54,2.42,5.54,39.11,10.35,78.19,20.86,117.25,31.39,2.45.66,4.12.39,5.88-1.64,7.21-8.3,16.29-13.5,27.11-15.54,2.17-.41,3.19-1.53,3.71-3.59,1.47-5.81,3.08-11.59,4.63-17.38,6.87-25.57,13.73-51.14,20.63-76.7.68-2.51,1.08-4.3-2.42-5.19-15.01-3.82-29.95-7.9-44.89-11.96-2.11-.58-3.35-.31-3.76,2.03-.21,1.23-.61,2.42-.94,3.63-3.96,14.71-7.83,29.45-11.91,44.13-1.86,6.68-7.38,7.9-12.09,2.83-2.47-2.65-5.04-5.26-7.13-8.2-2.26-3.18-4.61-3.85-8.27-2.37-4.38,1.76-8.85,3.41-12.92,4.2Zm50.76-97.97c-4.75.06-7.61-3.85-6.38-8.61,3.14-12.09,6.4-24.14,9.63-36.2.53-1.97.78-3.5-1.93-4.19-11.25-2.89-22.46-5.91-33.66-9-2.45-.68-3.54-.13-4.21,2.41-6.56,24.75-13.19,49.48-19.89,74.19-.64,2.36.23,3.21,2.25,3.71,2.78.7,5.55,1.48,8.33,2.22,33.17,8.89,66.35,17.76,99.51,26.7,2.63.71,4.42.93,5.31-2.43,6.44-24.39,12.97-48.76,19.59-73.1.77-2.83.21-3.99-2.7-4.72-10.3-2.58-20.53-5.4-30.78-8.16-5.35-1.45-5.33-1.48-6.74,3.78-2.99,11.22-6.01,22.44-9,33.66-.8,3.01-2.39,5.33-5.59,5.87-3.28.56-5.43-1.33-7.04-3.94-.98-1.6-2.02-3.18-2.79-4.88-1.31-2.89-2.92-3.08-5.53-1.41-2.7,1.72-5.34,3.77-8.38,4.1ZM289.4,12.66c-9.46,0-15.88,5.49-18.49,15.25-19.31,71.98-38.59,143.98-57.86,215.97-2,7.48-1.91,7.33,4.91,9.55,3.06,1,4.06.24,4.86-2.77,12.55-47.17,25.22-94.31,37.86-141.45,6.53-24.36,13.04-48.72,19.57-73.08,1.75-6.52,5.56-10.13,11.41-10.81,2.94-.34,5.67.76,8.42,1.49,11.95,3.16,23.86,6.44,35.83,9.55,4.8,1.25,8.44-2.41,7.11-6.92-.78-2.65-2.96-3.48-5.34-4.11-13.39-3.56-26.77-7.18-40.16-10.74-3.01-.8-6.06-1.44-8.11-1.92Zm-85.26,322.62c19.15-.02,35.62-16.67,35.43-35.84-.19-19.4-16.49-35.61-35.75-35.54-19.35.06-35.52,16.26-35.61,35.66-.09,19.39,16.36,35.74,35.93,35.72ZM12.9,250.58c.33,2.94,2.7,4.41,5.84,5.25,43.3,11.56,86.6,23.15,129.9,34.72,6.95,1.86,6.75,1.78,8.98-4.82,1.09-3.24.29-4.3-2.86-5.13-34.52-9.14-69-18.41-103.49-27.65-10.25-2.75-20.49-5.54-30.76-8.21-4.27-1.11-7.69,1.34-7.61,5.83Zm137.38-77.14c3.54-13.29,6.86-25.78,10.18-38.28.52-1.97-.93-2.27-2.31-2.64-5.3-1.41-10.64-2.69-15.87-4.32-2.88-.89-3.98-.07-4.69,2.74-2.5,9.91-5.26,19.75-7.82,29.64-.51,1.97-2.39,4.41-.83,5.88,1.3,1.21,3.7-.6,5.52-1.27,4.16-1.51,7.78-1.37,10.71,2.45,1.36,1.77,2.94,3.36,5.1,5.8Zm40.44-104.74c1.69-6.25,3.27-11.86,4.73-17.51,2.15-8.29,3.27-7.18-5.87-9.68-2.26-.62-3.18.12-3.71,2.26-1.49,5.93-3.16,11.82-4.69,17.74-.29,1.12-1.14,2.27-.2,3.61,3.84-1.18,7.17-.58,9.75,3.58Z" fill="#679738" stroke-width="0"/>
  <path d="m203.95,323.87c-13.67,0-24.32-10.52-24.35-24.07-.03-13.86,10.55-24.48,24.34-24.44,13.61.04,24.17,10.64,24.17,24.26,0,13.62-10.6,24.25-24.16,24.25Zm11.57-24.41c-.13-6.07-5.64-11.44-11.7-11.41-6.35.03-11.82,5.58-11.64,11.81.17,6.13,5.6,11.45,11.68,11.45,6.2,0,11.79-5.69,11.67-11.84Z" fill="#679738" stroke-width="0"/>
</svg>